<?xml version="1.0" encoding="UTF-8"?>
<svg width="16px" height="16px" viewBox="0 0 16 16" version="1.1" xmlns="http://www.w3.org/2000/svg" xmlns:xlink="http://www.w3.org/1999/xlink" style="background: #000000;">
    <!-- Generator: Sketch 41 (35326) - http://www.bohemiancoding.com/sketch -->
    <title>Artboard</title>
    <desc>Created with Sketch.</desc>
    <defs>
        <path d="M1.87733578,1.80540396 L1.87733578,8.01972313 L2.85475754,8.01972313 C2.9638049,8.01972313 3.09318315,7.98622113 3.24412439,7.92073991 C3.39537372,7.85586782 3.54015411,7.75383897 3.67938974,7.61648071 C3.81770122,7.47881787 3.93845424,7.30034353 4.04072465,7.07953478 C4.14361116,6.85842149 4.19536246,6.59284186 4.19536246,6.28188225 L4.19536246,3.56060497 C4.19536246,3.26243704 4.14361116,3.00294871 4.04072465,2.78183541 C3.93845424,2.56072211 3.81770122,2.37828841 3.67938974,2.23575257 C3.54015411,2.09199847 3.39537372,1.98448746 3.24412439,1.91261041 C3.09318315,1.84164705 2.9638049,1.80540396 2.85475754,1.80540396 L1.87733578,1.80540396 Z M5.49931017,13.8213584 C5.58402212,13.8213584 5.65025145,13.8088713 5.69830623,13.7848108 C5.74666906,13.7610548 5.79503184,13.7382125 5.84339467,13.7138474 L5.84339467,14.1073438 C5.77131252,14.1673428 5.68043972,14.2236871 5.57200842,14.2778995 C5.4632691,14.3311982 5.31787261,14.3579998 5.13705115,14.3579998 C4.97994901,14.3579998 4.82315492,14.3281525 4.66636079,14.268458 C4.50925869,14.2090681 4.36447827,14.1134351 4.23140353,13.9821681 C4.09863681,13.8505965 3.98743313,13.68065 3.89656032,13.4723283 C3.80599557,13.2627885 3.75455231,13.0033001 3.74315471,12.6935588 L3.74315471,9.75604121 C3.74315471,9.49381181 3.70618953,9.28092171 3.63410735,9.12041662 C3.5614091,8.95960692 3.46745587,8.83686773 3.35317176,8.75341724 C3.23827158,8.6699668 3.11474619,8.61301336 2.98197946,8.58255698 C2.84921274,8.55423255 2.72845972,8.53260853 2.61972041,8.52012141 L1.87733578,8.52012141 L1.87733578,13.2125354 C1.87733578,13.3791318 1.90074709,13.5015664 1.94972602,13.5795348 C1.99778079,13.656894 2.04583553,13.7016648 2.0945064,13.7138474 C2.16658855,13.7494813 2.24544769,13.7494813 2.32985158,13.7138474 L2.32985158,14.1789163 L0.156605333,14.1789163 L0.156605333,13.7138474 C0.24100923,13.7494813 0.313707474,13.7494813 0.373775913,13.7138474 C0.434152442,13.7016648 0.491756554,13.656894 0.546280237,13.5795348 C0.600187818,13.5015664 0.627603705,13.3791318 0.627603705,13.2125354 L0.627603705,2.32529432 C0.627603705,2.15778424 0.600187818,2.03260853 0.546280237,1.94915806 C0.491756554,1.86570759 0.434152442,1.81119067 0.373775913,1.7874347 C0.313707474,1.77616584 0.24100923,1.77616584 0.156605333,1.7874347 L0.156605333,1.35799978 L2.74663428,1.35799978 C3.19268114,1.35799978 3.58882499,1.43200878 3.93290944,1.58215871 C4.27668589,1.73078583 4.56347432,1.92509752 4.79296666,2.16357096 C5.02245899,2.40234895 5.19434721,2.67737003 5.30924739,2.98741596 C5.4241476,3.29776643 5.48144366,3.6199949 5.48144366,3.95440593 L5.48144366,5.90696425 C5.48144366,6.37203315 5.36069064,6.82583316 5.11887659,7.26714606 C4.87737056,7.70906809 4.50309779,8.03738782 3.9963664,8.2521053 C4.68422734,8.52621269 5.0283118,9.05158521 5.0283118,9.82700454 L5.0283118,12.6935588 C5.0283118,13.0033001 5.04925878,13.2688797 5.09207681,13.489993 C5.13397069,13.7111063 5.26981784,13.8213584 5.49931017,13.8213584 L5.49931017,13.8213584 Z" id="path-1"></path>
        <filter x="-50%" y="-50%" width="200%" height="200%" filterUnits="objectBoundingBox" id="filter-2">
            <feMorphology radius="0.2" operator="dilate" in="SourceAlpha" result="shadowSpreadOuter1"></feMorphology>
            <feOffset dx="0" dy="2" in="shadowSpreadOuter1" result="shadowOffsetOuter1"></feOffset>
            <feGaussianBlur stdDeviation="2" in="shadowOffsetOuter1" result="shadowBlurOuter1"></feGaussianBlur>
            <feComposite in="shadowBlurOuter1" in2="SourceAlpha" operator="out" result="shadowBlurOuter1"></feComposite>
            <feColorMatrix values="0 0 0 0 0   0 0 0 0 0   0 0 0 0 0  0 0 0 0.5 0" type="matrix" in="shadowBlurOuter1"></feColorMatrix>
        </filter>
    </defs>
    <g id="Page-1" stroke="none" stroke-width="1" fill="none" fill-rule="evenodd">
        <g id="Artboard">
            <g id="Group" transform="translate(5.000000, 0.000000)">
                <g id="Fill-7">
                    <use fill="black" fill-opacity="1" filter="url(#filter-2)" xlink:href="#path-1"></use>
                    <use stroke="#FFFFFF" stroke-width="0.4" fill="#FEFEFE" fill-rule="evenodd" xlink:href="#path-1"></use>
                </g>
                <polygon id="Fill-30" fill="#FEFEFE" points="7.59180939 0 11 4 7.59180939 4"></polygon>
            </g>
        </g>
    </g>
</svg>